<svg width="62" height="68" viewBox="0 0 62 68" fill="none" xmlns="http://www.w3.org/2000/svg">
<g clip-path="url(#clip0_117_635)" filter="url(#filter0_d_117_635)">
<path d="M55.6936 23.9628C55.2992 10.6825 44.3742 0 30.9999 0C17.6257 0 6.70065 10.6825 6.30618 23.9628L4.52936 25.7396V37.7898L6.29406 39.5545V47.7647C6.29406 52.5652 10.1995 56.4706 14.9999 56.4706H17.1858C17.9143 58.5246 19.8758 60 22.1764 60H25.7058C28.0079 60 29.9705 58.5225 30.6978 56.4664C30.7987 56.4681 30.8997 56.4706 30.9999 56.4706C39.5221 56.4706 46.6527 50.3981 48.2922 42.3529H52.9074L57.4705 37.7898V25.7396L55.6936 23.9628ZM30.9999 3.52941C41.4742 3.52941 50.1954 11.174 51.8807 21.1765H48.2922C46.6527 13.1313 39.5221 7.05882 30.9999 7.05882C22.4778 7.05882 15.3472 13.1313 13.7077 21.1765H10.1192C11.8045 11.174 20.5257 3.52941 30.9999 3.52941ZM44.6709 21.1765C38.9663 21.1594 34.9369 21.5068 31.6148 16.6506L30.0016 14.2926L28.6152 16.7907C26.5952 20.4306 23.8749 21.1765 20.4117 21.1765H17.329C18.9002 15.0944 24.4337 10.5882 30.9999 10.5882C37.5662 10.5882 43.0997 15.0944 44.6709 21.1765ZM13.3529 38.8235H10.5544L8.05877 36.3279V27.2015L10.5544 24.7059H13.3529V38.8235ZM9.82348 47.7647V42.3529H13.7043C14.3687 45.6441 15.9582 48.6652 18.313 51.0916C17.8194 51.6191 17.4322 52.2467 17.1858 52.9412H14.9999C12.1456 52.9412 9.82348 50.6191 9.82348 47.7647ZM25.7058 56.4706H22.1764C21.2032 56.4706 20.4117 55.6791 20.4117 54.7059C20.4117 53.7328 21.2032 52.9412 22.1764 52.9412H25.7058C26.6789 52.9412 27.4705 53.7328 27.4705 54.7059C27.4705 55.6791 26.6789 56.4706 25.7058 56.4706ZM45.1176 38.8235C45.1176 46.608 38.7844 52.9412 30.9999 52.9412C30.8988 52.9412 30.7968 52.9392 30.6949 52.9368C29.9652 50.8851 28.0048 49.4118 25.7058 49.4118C22.0823 49.4198 22.1401 49.3936 21.6884 49.4352C18.6247 46.7498 16.8823 42.9248 16.8823 38.8235V24.7059H20.4117C23.5349 24.7059 27.3384 24.1909 30.2827 20.6076C34.1674 24.6786 38.9147 24.7059 43.1762 24.7059H45.1176V38.8235ZM53.9411 36.3279L51.4455 38.8235H48.647V24.7059H51.4455L53.9411 27.2015V36.3279Z" fill="#242424"/>
</g>
<defs>
<filter id="filter0_d_117_635" x="-3" y="0" width="68" height="68" filterUnits="userSpaceOnUse" color-interpolation-filters="sRGB">
<feFlood flood-opacity="0" result="BackgroundImageFix"/>
<feColorMatrix in="SourceAlpha" type="matrix" values="0 0 0 0 0 0 0 0 0 0 0 0 0 0 0 0 0 0 127 0" result="hardAlpha"/>
<feOffset dy="4"/>
<feGaussianBlur stdDeviation="2"/>
<feComposite in2="hardAlpha" operator="out"/>
<feColorMatrix type="matrix" values="0 0 0 0 0 0 0 0 0 0 0 0 0 0 0 0 0 0 0.25 0"/>
<feBlend mode="normal" in2="BackgroundImageFix" result="effect1_dropShadow_117_635"/>
<feBlend mode="normal" in="SourceGraphic" in2="effect1_dropShadow_117_635" result="shape"/>
</filter>
<clipPath id="clip0_117_635">
<rect width="60" height="60" fill="white" transform="translate(1)"/>
</clipPath>
</defs>
</svg>
