<svg width="69" height="68" viewBox="0 0 69 68" fill="none" xmlns="http://www.w3.org/2000/svg">
<g clip-path="url(#clip0_117_621)" filter="url(#filter0_d_117_621)">
<path d="M61.1194 21.2612C60.3276 18.8097 60.6651 15.1296 58.6073 12.2882C56.5333 9.42438 52.9262 8.61039 50.8894 7.1207C48.874 5.64672 46.999 2.43918 43.6089 1.33293C40.3144 0.257852 36.9455 1.71672 34.3333 1.71672C31.7216 1.71672 28.3529 0.2575 25.0578 1.33281C21.6683 2.43883 19.7918 5.64707 17.7777 7.12035C15.7431 8.60828 12.1332 9.42449 10.0596 12.2879C8.00354 15.127 8.33764 18.8154 7.54733 21.2611C6.79522 23.5888 4.33334 26.3825 4.33334 30.0003C4.33334 33.6203 6.79241 36.4032 7.54733 38.7393C8.33905 41.1909 8.00155 44.8709 10.0594 47.7123C12.1332 50.5763 15.7403 51.3902 17.7773 52.88C19.7924 54.3537 21.6677 57.5615 25.0578 58.6676C28.3501 59.742 31.7243 58.2838 34.3333 58.2838C36.9388 58.2838 40.3208 59.7405 43.6089 58.6677C46.9985 57.5617 48.8739 54.3542 50.889 52.8802C52.9236 51.3923 56.5335 50.5761 58.6071 47.7127C60.6633 44.8735 60.3289 41.1854 61.1194 38.7394C61.8715 36.4116 64.3333 33.618 64.3333 30.0003C64.3333 26.3805 61.8749 23.5984 61.1194 21.2612ZM56.6591 37.298C55.7362 40.1545 55.978 43.3512 54.8108 44.963C53.6279 46.5962 50.5202 47.3423 48.1222 49.0963C45.7505 50.8308 44.0882 53.5804 42.1548 54.2112C40.3257 54.8082 37.3449 53.5961 34.3335 53.5961C31.2999 53.5961 28.3499 54.8107 26.512 54.2112C24.5789 53.5804 22.9189 50.8327 20.5446 49.0962C18.1608 47.3528 15.0354 46.5914 13.8559 44.9628C12.6924 43.3564 12.9251 40.1375 12.0078 37.2981C11.1088 34.5162 9.02084 32.1074 9.02084 30.0003C9.02084 27.891 11.1069 25.4905 12.0076 22.7025C12.9305 19.8462 12.6887 16.6492 13.8559 15.0375C15.0381 13.4054 18.1481 12.6569 20.5446 10.9042C22.9239 9.1641 24.5757 6.42109 26.5118 5.78934C28.3393 5.19309 31.3298 6.40445 34.3332 6.40445C37.3722 6.40445 40.3149 5.18898 42.1547 5.78934C44.0876 6.42004 45.7489 9.16879 48.1222 10.9043C50.5057 12.6477 53.6313 13.4091 54.8108 15.0377C55.9745 16.6444 55.7406 19.86 56.6589 22.7023V22.7024C57.5579 25.4843 59.6458 27.8931 59.6458 30.0003C59.6458 32.1095 57.5598 34.51 56.6591 37.298ZM45.1314 22.4774C46.0467 23.3928 46.0467 24.8767 45.1314 25.792L33.4002 37.5231C32.4848 38.4385 31.0008 38.4384 30.0855 37.5231L23.5355 30.973C22.6201 30.0577 22.62 28.5737 23.5353 27.6585C24.4507 26.7433 25.9349 26.7432 26.8499 27.6585L31.7428 32.5513L41.8166 22.4775C42.7319 21.5622 44.216 21.5622 45.1314 22.4774Z" fill="#242424"/>
</g>
<defs>
<filter id="filter0_d_117_621" x="0.333344" y="0" width="68" height="68" filterUnits="userSpaceOnUse" color-interpolation-filters="sRGB">
<feFlood flood-opacity="0" result="BackgroundImageFix"/>
<feColorMatrix in="SourceAlpha" type="matrix" values="0 0 0 0 0 0 0 0 0 0 0 0 0 0 0 0 0 0 127 0" result="hardAlpha"/>
<feOffset dy="4"/>
<feGaussianBlur stdDeviation="2"/>
<feComposite in2="hardAlpha" operator="out"/>
<feColorMatrix type="matrix" values="0 0 0 0 0 0 0 0 0 0 0 0 0 0 0 0 0 0 0.25 0"/>
<feBlend mode="normal" in2="BackgroundImageFix" result="effect1_dropShadow_117_621"/>
<feBlend mode="normal" in="SourceGraphic" in2="effect1_dropShadow_117_621" result="shape"/>
</filter>
<clipPath id="clip0_117_621">
<rect width="60" height="60" fill="white" transform="translate(4.33334)"/>
</clipPath>
</defs>
</svg>
